<svg width="126" height="42" viewBox="0 0 126 42" fill="none" xmlns="http://www.w3.org/2000/svg">
<g clip-path="url(#clip0_479_3884)">
<path d="M36.5157 13.1313H42.7669C43.8869 13.1313 44.8387 13.3071 45.6223 13.6585C46.4024 14.01 46.9928 14.4998 47.3864 15.1317C47.78 15.7636 47.9768 16.5002 47.9768 17.3489C47.9768 17.9696 47.8551 18.5192 47.6118 19.0053C47.3685 19.4876 47.0357 19.8877 46.6135 20.2018C46.1913 20.5158 45.701 20.7364 45.1428 20.8636V21.0206C45.744 21.0505 46.3058 21.2337 46.8353 21.5665C47.3649 21.8993 47.7872 22.3629 48.1056 22.9574C48.4241 23.5519 48.5815 24.2399 48.5815 25.0251C48.5815 25.9037 48.374 26.6814 47.9625 27.3619C47.551 28.0424 46.9355 28.5771 46.1233 28.9659C45.311 29.3548 44.327 29.5492 43.1784 29.5492H36.5157V13.1313ZM43.5112 19.7531C43.8762 19.5811 44.1624 19.3343 44.3699 19.0165C44.5775 18.6987 44.6777 18.3248 44.6777 17.8948C44.6777 17.4873 44.5882 17.1321 44.4057 16.8329C44.2232 16.5338 43.9585 16.3057 43.6078 16.1412C43.2571 15.9805 42.8349 15.8982 42.3447 15.8982H39.7719V20.0148H42.2803C42.7347 20.0148 43.1462 19.9288 43.5112 19.7531ZM44.0408 26.4945C44.4415 26.3262 44.7385 26.0869 44.9246 25.7803C45.1142 25.4737 45.2073 25.111 45.2073 24.6848C45.2073 24.2324 45.1035 23.8248 44.8924 23.4584C44.6813 23.0957 44.3807 22.8191 43.9871 22.6246C43.5935 22.4302 43.1319 22.3367 42.6023 22.3367H39.7684V26.7487H42.5128C43.1283 26.7487 43.6364 26.6627 44.0372 26.4945H44.0408Z" fill="black"/>
<path d="M52.8325 29.0183C51.9522 28.506 51.2759 27.7695 50.8036 26.8198C50.3313 25.8663 50.0916 24.7484 50.0916 23.4622C50.0916 22.1759 50.3277 21.0767 50.8036 20.112C51.2759 19.1474 51.9451 18.4033 52.8074 17.8724C53.6698 17.3452 54.6681 17.0797 55.8024 17.0797C56.8651 17.0797 57.8134 17.3115 58.6471 17.7789C59.4772 18.2425 60.132 18.9455 60.6115 19.8839C61.0874 20.8224 61.3272 21.9666 61.3272 23.3201V24.2623H51.4083V22.1647H58.3C58.3 21.6674 58.1962 21.2225 57.9851 20.8337C57.774 20.4448 57.4877 20.1419 57.1156 19.9213C56.747 19.7007 56.3284 19.5923 55.8561 19.5923C55.3551 19.5923 54.9114 19.712 54.5214 19.9513C54.1314 20.1905 53.8236 20.5158 53.6054 20.9309C53.3835 21.3459 53.269 21.802 53.2619 22.2919V24.266C53.2619 24.8792 53.3728 25.4139 53.5982 25.8775C53.8236 26.3374 54.1385 26.6889 54.5464 26.9319C54.9544 27.175 55.4303 27.2946 55.9741 27.2946C56.3355 27.2946 56.6647 27.2385 56.9617 27.1301C57.2587 27.0217 57.5092 26.8758 57.7167 26.7001C57.9243 26.5206 58.0817 26.3113 58.1891 26.072H61.2485C61.0982 26.8198 60.7833 27.4778 60.311 28.0387C59.8386 28.6033 59.2268 29.037 58.4753 29.3436C57.7275 29.6502 56.8794 29.8035 55.9312 29.8035C54.7432 29.8035 53.7127 29.5455 52.8325 29.0332V29.0183Z" fill="black"/>
<path d="M63.4168 13.1313H69.5607C70.7343 13.1313 71.7434 13.3632 72.595 13.8305C73.4466 14.2942 74.0907 14.9485 74.5308 15.786C74.9709 16.6236 75.1928 17.5882 75.1928 18.6763C75.1928 19.7643 74.9674 20.7327 74.5129 21.5628C74.0621 22.3891 73.4072 23.0359 72.5485 23.5033C71.6897 23.9669 70.6699 24.2025 69.4819 24.2025H65.5316V21.4581H68.9703C69.6 21.4581 70.1296 21.3422 70.559 21.1141C70.9884 20.8823 71.3104 20.5607 71.5179 20.1457C71.7291 19.7307 71.8328 19.2408 71.8328 18.6837C71.8328 18.1266 71.7291 17.6406 71.5179 17.2255C71.3068 16.8142 70.9884 16.4964 70.559 16.2721C70.1296 16.0478 69.5964 15.9393 68.9595 15.9393H66.6695V29.5567H63.4133V13.1388L63.4168 13.1313Z" fill="black"/>
<path d="M84.7538 17.2367H87.9456V29.5529H84.8754V27.332H84.7466C84.4639 28.0648 84.0167 28.6444 83.4012 29.0706C82.7858 29.4969 82.0451 29.71 81.1756 29.71C80.3955 29.71 79.7049 29.523 79.1038 29.1491C78.5026 28.7752 78.0339 28.2368 77.6975 27.5376C77.3612 26.8384 77.193 26.0159 77.193 25.0699V17.233H80.4062V24.4904C80.4062 24.9652 80.4885 25.384 80.6567 25.7429C80.8213 26.1019 81.0646 26.3785 81.3795 26.5692C81.6944 26.7637 82.0558 26.8571 82.4601 26.8571C82.8645 26.8571 83.2545 26.7599 83.6052 26.5617C83.9558 26.3636 84.2349 26.0719 84.4461 25.6756C84.6572 25.283 84.7609 24.8231 84.7609 24.2922V17.2292L84.7538 17.2367Z" fill="black"/>
<path d="M90.5362 13.1313H93.7387V19.3007H93.846C94.0572 18.8557 94.2862 18.4818 94.5402 18.179C94.7943 17.8761 95.1449 17.6181 95.5922 17.4013C96.0395 17.1844 96.5727 17.0797 97.1881 17.0797C98.0791 17.0797 98.8878 17.319 99.6142 17.7939C100.341 18.2687 100.917 18.9829 101.346 19.9363C101.772 20.8897 101.987 22.0451 101.987 23.4061C101.987 24.7671 101.779 25.8813 101.364 26.8347C100.949 27.7919 100.38 28.5135 99.6535 29.0071C98.9307 29.4969 98.1077 29.7437 97.1917 29.7437C96.5905 29.7437 96.0681 29.639 95.6244 29.4258C95.1807 29.2127 94.8229 28.9585 94.551 28.6556C94.279 28.3527 94.0464 27.9975 93.8496 27.59H93.6886V29.553H90.5433V13.1351L90.5362 13.1313ZM93.9713 25.3279C94.1717 25.885 94.4579 26.3113 94.8336 26.6141C95.2094 26.917 95.6602 27.0665 96.1791 27.0665C96.6979 27.0665 97.1702 26.9132 97.5459 26.6029C97.9216 26.2926 98.2079 25.8588 98.4047 25.3055C98.6015 24.7484 98.6981 24.109 98.6981 23.3836C98.6981 22.6583 98.6015 22.0226 98.4119 21.4805C98.2186 20.9346 97.936 20.5158 97.5602 20.2167C97.1845 19.9176 96.7229 19.768 96.1826 19.768C95.6423 19.768 95.2058 19.9139 94.8301 20.2055C94.4579 20.4971 94.1717 20.9159 93.9713 21.4581C93.7709 22.004 93.6743 22.6433 93.6743 23.3874C93.6743 24.1314 93.7745 24.7783 93.9713 25.3316V25.3279Z" fill="black"/>
<path d="M107.257 29.5492H104.044V13.1313H107.257V29.5492Z" fill="black"/>
<path d="M110.481 15.3859C110.213 15.2364 110.002 15.027 109.841 14.7615C109.68 14.4961 109.601 14.2119 109.601 13.9128C109.601 13.6137 109.68 13.3183 109.841 13.0566C109.998 12.7948 110.213 12.5892 110.481 12.4396C110.75 12.2901 111.043 12.2115 111.361 12.2115C111.68 12.2115 111.973 12.2863 112.242 12.4396C112.51 12.5892 112.721 12.7986 112.875 13.0566C113.029 13.3183 113.108 13.6024 113.108 13.9128C113.108 14.2231 113.029 14.4998 112.875 14.7615C112.718 15.027 112.506 15.2326 112.242 15.3859C111.973 15.5355 111.68 15.614 111.361 15.614C111.043 15.614 110.75 15.5392 110.481 15.3859ZM109.755 17.2367H112.968V29.553H109.755V17.2367Z" fill="black"/>
<path d="M117.677 28.9846C116.8 28.4462 116.131 27.6984 115.67 26.7412C115.208 25.7803 114.975 24.681 114.975 23.4397C114.975 22.1983 115.212 21.0766 115.68 20.1157C116.149 19.1548 116.818 18.4107 117.688 17.8761C118.557 17.3414 119.577 17.0759 120.747 17.0759C121.76 17.0759 122.654 17.2666 123.434 17.648C124.211 18.0294 124.823 18.5753 125.27 19.2857C125.714 19.9961 125.961 20.8149 126.004 21.7459H122.966C122.908 21.3384 122.783 20.9757 122.597 20.6616C122.407 20.3475 122.164 20.1045 121.86 19.9363C121.556 19.768 121.205 19.682 120.808 19.682C120.293 19.682 119.845 19.8278 119.463 20.1195C119.08 20.4111 118.779 20.8336 118.561 21.3832C118.343 21.9366 118.235 22.6021 118.235 23.3799C118.235 24.1576 118.343 24.8381 118.554 25.3914C118.768 25.9485 119.065 26.371 119.448 26.6664C119.831 26.9618 120.282 27.1076 120.804 27.1076C121.187 27.1076 121.531 27.0291 121.835 26.8758C122.139 26.7225 122.39 26.487 122.583 26.1766C122.78 25.8663 122.905 25.4961 122.962 25.0661H126C125.95 25.9971 125.707 26.816 125.266 27.5264C124.83 28.2368 124.225 28.7902 123.456 29.1865C122.687 29.5828 121.792 29.781 120.769 29.781C119.581 29.781 118.55 29.5118 117.677 28.9771V28.9846Z" fill="black"/>
<path d="M13.6903 35.4829L2.13263 28.5097V14.9036L13.9801 22.0525L25.8276 14.9036V28.5097L14.2664 35.4829H13.6903Z" fill="#F3BA2F"/>
<path d="M19.4977 7.8219V11.5796L23.2871 13.8678L13.9801 19.4838L4.67316 13.8678L8.4625 11.5796V7.8219L0 12.9256V29.7922L11.4396 36.6943L13.9765 41.9999L16.5135 36.6943L27.9531 29.7922V12.9256L19.4906 7.8219H19.4977ZM24.8436 27.9152L14.0052 34.4547H13.9551L3.11663 27.9152V24.1799L13.9801 30.7344L24.8436 24.1799V27.9152ZM24.8436 20.4223L13.9801 26.9767L3.11663 20.4223V16.687L13.9801 23.2415L24.8436 16.687V20.4223Z" fill="black"/>
<path d="M17.5905 0L10.3697 4.35592V15.6925L17.5905 11.3366V0Z" fill="black"/>
<path d="M124.934 13.752C124.934 13.2099 124.562 13.0229 124.064 13.0229H123.277V15.5393H123.656V14.526H124.046L124.594 15.5393H125.023L124.436 14.4737C124.74 14.3765 124.941 14.1409 124.941 13.752H124.934ZM124.018 14.2082H123.656V13.3445H124.018C124.368 13.3445 124.558 13.4492 124.558 13.7558C124.558 14.0624 124.368 14.2119 124.018 14.2119V14.2082Z" fill="black"/>
<path d="M124.018 12.2115C122.926 12.2115 122.035 13.1388 122.035 14.2829C122.035 15.4271 122.923 16.3543 124.018 16.3543C125.113 16.3543 126 15.4271 126 14.2829C126 13.1388 125.113 12.2115 124.018 12.2115ZM124.018 16.0141C123.105 16.0141 122.361 15.2364 122.361 14.2829C122.361 13.3295 123.105 12.5518 124.018 12.5518C124.93 12.5518 125.674 13.3295 125.674 14.2829C125.674 15.2364 124.93 16.0141 124.018 16.0141Z" fill="black"/>
</g>
<defs>
<clipPath id="clip0_479_3884">
<rect width="126" height="42" fill="white"/>
</clipPath>
</defs>
</svg>
