<svg width="20" height="21" viewBox="0 0 20 21" fill="none" xmlns="http://www.w3.org/2000/svg">
<g id="Button">
<g id="Vector">
<path d="M14.9244 13.3059H12.4622V15.768H14.9244V13.3059Z" fill="#F3BA2F"/>
<path fill-rule="evenodd" clip-rule="evenodd" d="M13.447 5.18091H5.7324V2.63672H4.25513V5.18155C4.05517 5.18292 3.87379 5.18713 3.71463 5.20014C3.46367 5.22064 3.20363 5.26661 2.95047 5.39559C2.57985 5.58444 2.27853 5.88576 2.08969 6.25638C1.9607 6.50953 1.91473 6.76958 1.89423 7.02054C1.87497 7.25621 1.87498 7.54057 1.875 7.86189V16.2878C1.87498 16.6091 1.87497 16.8935 1.89423 17.1292C1.91473 17.3801 1.9607 17.6402 2.08969 17.8933C2.27853 18.2639 2.57985 18.5653 2.95047 18.7541C3.20363 18.8831 3.46367 18.9291 3.71463 18.9496C3.95028 18.9688 4.23462 18.9688 4.55589 18.9688H15.444C15.7653 18.9688 16.0497 18.9688 16.2854 18.9496C16.5363 18.9291 16.7964 18.8831 17.0495 18.7541C17.4201 18.5653 17.7215 18.2639 17.9103 17.8933C18.0393 17.6402 18.0853 17.3801 18.1058 17.1292C18.125 16.8935 18.125 16.6091 18.125 16.2878V7.86188C18.125 7.54059 18.125 7.2562 18.1058 7.02054C18.0853 6.76958 18.0393 6.50953 17.9103 6.25638C17.7215 5.88576 17.4201 5.58444 17.0495 5.39559C16.7964 5.26661 16.5363 5.22064 16.2854 5.20014C16.0497 5.18088 15.7653 5.18089 15.444 5.18091L14.9242 5.18091V2.63672H13.447V5.18091ZM3.83492 6.6725C3.67532 6.68554 3.63133 6.70666 3.62114 6.71185C3.52849 6.75906 3.45316 6.8344 3.40594 6.92705C3.40075 6.93724 3.37963 6.98123 3.36659 7.14083C3.35285 7.30906 3.35227 7.53233 3.35227 7.88924V9.3666H16.6477V7.88924C16.6477 7.53233 16.6472 7.30906 16.6334 7.14083C16.6204 6.98123 16.5992 6.93724 16.5941 6.92705C16.5468 6.8344 16.4715 6.75906 16.3789 6.71185C16.3687 6.70666 16.3247 6.68554 16.1651 6.6725C15.9968 6.65876 15.7736 6.65818 15.4167 6.65818H4.58333C4.22642 6.65818 4.00315 6.65876 3.83492 6.6725ZM3.35227 16.2605V10.8439H16.6477V16.2605C16.6477 16.6174 16.6472 16.8406 16.6334 17.0089C16.6204 17.1685 16.5992 17.2125 16.5941 17.2226C16.5468 17.3153 16.4715 17.3906 16.3789 17.4378C16.3687 17.443 16.3247 17.4642 16.1651 17.4772C15.9968 17.4909 15.7736 17.4915 15.4167 17.4915H4.58333C4.22642 17.4915 4.00315 17.4909 3.83492 17.4772C3.67532 17.4642 3.63133 17.443 3.62114 17.4378C3.52849 17.3906 3.45316 17.3153 3.40594 17.2226C3.40075 17.2125 3.37963 17.1685 3.36659 17.0089C3.35285 16.8406 3.35227 16.6174 3.35227 16.2605Z" fill="#F3BA2F"/>
</g>
</g>
</svg>
