<svg width="20" height="21" viewBox="0 0 20 21" fill="none" xmlns="http://www.w3.org/2000/svg">
<g id="Button">
<g id="Group">
<path id="Vector" d="M7.77425 10.1371L6.74664 14.0841L10.6818 13.0511L9.22801 11.5941L7.77425 10.1371Z" stroke="#F3BA2F" stroke-width="1.5" stroke-linecap="round" stroke-linejoin="round"/>
<path id="Vector_2" d="M17.2797 6.4385C17.7814 5.93264 17.7844 5.11477 17.2797 4.61193L16.1946 3.52447C15.6899 3.02163 14.8738 3.02163 14.3721 3.52447L7.77429 10.1371L10.6818 13.0511L17.2797 6.4385Z" stroke="#F3BA2F" stroke-width="1.5" stroke-linecap="round" stroke-linejoin="round"/>
</g>
<path id="Vector_3" d="M15.7503 11.7395V17.298C15.7503 17.6191 15.6203 17.9099 15.4118 18.1189C15.2032 18.3279 14.9131 18.4582 14.5927 18.4582H3.50059C3.18021 18.4582 2.89007 18.3279 2.68152 18.1189C2.47298 17.9099 2.34302 17.6191 2.34302 17.298V6.18104C2.34302 5.85995 2.47298 5.56915 2.68152 5.36014C2.89007 5.15113 3.18021 5.02087 3.50059 5.02087H9.04664" stroke="#F3BA2F" stroke-width="1.5" stroke-linecap="round" stroke-linejoin="round"/>
</g>
</svg>
