<svg width="20" height="21" viewBox="0 0 20 21" fill="none" xmlns="http://www.w3.org/2000/svg">
<g id="Button">
<g id="Group 4">
<path id="Vector" d="M7.32507 12.6031C8.36428 12.5684 9.38559 13.0327 10.1844 13.9439C10.9351 14.8001 11.3857 15.9322 11.455 17.1607L11.4637 17.397C11.4636 17.4272 11.4392 17.4522 11.4091 17.4527L1.25964 17.5455L1.23132 17.5338C1.2237 17.5263 1.21863 17.5159 1.21863 17.5045H0.468628L1.21863 17.4996C1.19984 14.8098 3.00253 12.7526 5.09851 12.6109L5.30164 12.6031H7.32507Z" stroke="#F3BA2F" stroke-width="1.5"/>
<path id="Vector_2" d="M6.35162 6.24023C7.5554 6.24023 8.53229 7.21726 8.53229 8.42383C8.53224 9.63035 7.55537 10.6074 6.35162 10.6074C5.14794 10.6073 4.17101 9.6303 4.17096 8.42383C4.17096 7.21731 5.14791 6.24031 6.35162 6.24023Z" stroke="#F3BA2F" stroke-width="1.5"/>
<path id="Vector_3" d="M13.8036 11.5016C15.0636 11.4595 16.2948 12.0242 17.2518 13.1158C18.1507 14.1412 18.6889 15.4938 18.7714 16.9586L18.7811 17.2418C18.7811 17.3345 18.7161 17.4127 18.6288 17.4313L18.5897 17.4352L6.70886 17.5446C6.61126 17.5455 6.53132 17.4663 6.53113 17.3688H5.78113L6.53113 17.3629C6.50889 14.1632 8.65668 11.6824 11.1923 11.5114L11.4384 11.5026H13.7919L13.8036 11.5016Z" fill="white" stroke="#F3BA2F" stroke-width="1.5"/>
<path id="Vector_4" d="M12.6692 4.05273C14.1491 4.05298 15.3499 5.25428 15.3499 6.7373C15.3497 8.22022 14.149 9.42163 12.6692 9.42188C11.1891 9.42188 9.98767 8.22037 9.98755 6.7373C9.98755 5.25413 11.1891 4.05273 12.6692 4.05273Z" fill="white" stroke="#F3BA2F" stroke-width="1.5"/>
</g>
</g>
</svg>
