<svg width="30" height="31" viewBox="0 0 30 31" fill="none" xmlns="http://www.w3.org/2000/svg">
<rect y="0.802734" width="30" height="30" rx="15" fill="black"/>
<path d="M14.352 17.8008C14.0713 17.6546 13.8097 17.4623 13.5713 17.2277C12.3174 15.9739 12.3174 13.9393 13.5713 12.6854L17.0174 9.24312C18.2713 7.98927 20.3059 7.98927 21.5597 9.24312C22.8136 10.497 22.8136 12.5316 21.5597 13.7854L19.6097 15.7354" stroke="white" stroke-width="1.5" stroke-miterlimit="10" stroke-linecap="round"/>
<path d="M15.6445 13.8047C15.9253 13.9508 16.1868 14.1431 16.4253 14.3778C17.6792 15.6316 17.6792 17.6662 16.4253 18.9201L12.983 22.3624C11.7292 23.6162 9.69455 23.6162 8.4407 22.3624C7.18686 21.1085 7.18686 19.0739 8.4407 17.8201L10.3907 15.8701" stroke="white" stroke-width="1.5" stroke-miterlimit="10" stroke-linecap="round"/>
</svg>
